<svg width="17" height="4" viewBox="0 0 17 4" fill="none" xmlns="http://www.w3.org/2000/svg">
<path d="M10.1875 2.25C10.1875 3.19922 9.41406 3.9375 8.5 3.9375C7.55078 3.9375 6.8125 3.19922 6.8125 2.25C6.8125 1.33594 7.55078 0.5625 8.5 0.5625C9.41406 0.5625 10.1875 1.33594 10.1875 2.25ZM14.4062 0.5625C15.3203 0.5625 16.0938 1.33594 16.0938 2.25C16.0938 3.19922 15.3203 3.9375 14.4062 3.9375C13.457 3.9375 12.7188 3.19922 12.7188 2.25C12.7188 1.33594 13.457 0.5625 14.4062 0.5625ZM2.59375 0.5625C3.50781 0.5625 4.28125 1.33594 4.28125 2.25C4.28125 3.19922 3.50781 3.9375 2.59375 3.9375C1.64453 3.9375 0.90625 3.19922 0.90625 2.25C0.90625 1.33594 1.64453 0.5625 2.59375 0.5625Z" fill="#5B59FE"/>
</svg>
