<svg width="19" height="18" viewBox="0 0 19 18" xmlns="http://www.w3.org/2000/svg">
  <path d="M14 8.6875V9.8125C14 10.0586 13.7891 10.2344 13.5781 10.2344H10.4844V13.3281C10.4844 13.5742 10.2734 13.75 10.0625 13.75H8.9375C8.69141 13.75 8.51562 13.5742 8.51562 13.3281V10.2344H5.42188C5.17578 10.2344 5 10.0586 5 9.8125V8.6875C5 8.47656 5.17578 8.26562 5.42188 8.26562H8.51562V5.17188C8.51562 4.96094 8.69141 4.75 8.9375 4.75H10.0625C10.2734 4.75 10.4844 4.96094 10.4844 5.17188V8.26562H13.5781C13.7891 8.26562 14 8.47656 14 8.6875ZM18.2188 9.25C18.2188 14.0664 14.3164 17.9688 9.5 17.9688C4.68359 17.9688 0.78125 14.0664 0.78125 9.25C0.78125 4.43359 4.68359 0.53125 9.5 0.53125C14.3164 0.53125 18.2188 4.43359 18.2188 9.25ZM16.5312 9.25C16.5312 5.38281 13.3672 2.21875 9.5 2.21875C5.59766 2.21875 2.46875 5.38281 2.46875 9.25C2.46875 13.1523 5.59766 16.2812 9.5 16.2812C13.3672 16.2812 16.5312 13.1523 16.5312 9.25Z" fill="#5B59FE"/>
</svg>
