<svg width="30" height="30" viewBox="0 0 30 30" fill="none" xmlns="http://www.w3.org/2000/svg">
<rect x="0.5" y="0.5" width="29" height="29" rx="14.5" fill="white"/>
<rect x="0.5" y="0.5" width="29" height="29" rx="14.5" stroke="#F1F1FA"/>
<path d="M20.1694 13.0086L13.4194 19.7586C13.2641 19.9106 13.0691 20.0158 12.8569 20.0623L10.8656 20.4617C10.6843 20.4976 10.497 20.4882 10.3202 20.4345C10.1434 20.3807 9.98254 20.2843 9.85187 20.1536C9.7212 20.0229 9.62474 19.8621 9.57099 19.6853C9.51725 19.5084 9.50789 19.3211 9.54374 19.1398L9.93749 17.1655C9.98399 16.9532 10.0893 16.7583 10.2412 16.603L16.9012 9.93734C17.1187 9.71453 17.3785 9.53746 17.6654 9.41657C17.9523 9.29568 18.2605 9.2334 18.5719 9.2334C18.8832 9.2334 19.1914 9.29568 19.4783 9.41657C19.7652 9.53746 20.025 9.71453 20.2425 9.93734C20.63 10.3648 20.8385 10.9248 20.8249 11.5016C20.8113 12.0785 20.5766 12.628 20.1694 13.0367V13.0086Z" stroke="#212325" stroke-width="1.4" stroke-linecap="round" stroke-linejoin="round"/>
</svg>
