<svg width="56" height="56" viewBox="0 0 56 56" fill="none" xmlns="http://www.w3.org/2000/svg">
<g filter="url(#filter0_d_1_11625)">
<rect x="4" y="2" width="48" height="48" rx="24" fill="#5B59FE"/>
<path d="M28 15.2344C34.1094 15.2344 39.1406 20.2656 39.1406 26.375C39.1406 32.5293 34.1094 37.5156 28 37.5156C21.8457 37.5156 16.8594 32.5293 16.8594 26.375C16.8594 20.2656 21.8457 15.2344 28 15.2344ZM28 35.3594C32.9414 35.3594 36.9844 31.3613 36.9844 26.375C36.9844 21.4336 32.9414 17.3906 28 17.3906C23.0137 17.3906 19.0156 21.4336 19.0156 26.375C19.0156 31.3613 23.0137 35.3594 28 35.3594ZM32.8066 23.9043C32.8066 26.9141 29.5273 26.959 29.5273 28.082V28.3516C29.5273 28.666 29.3027 28.8906 28.9883 28.8906H26.9668C26.6523 28.8906 26.4277 28.666 26.4277 28.3516V27.9922C26.4277 26.375 27.6406 25.7461 28.5391 25.207C29.3477 24.7578 29.8418 24.4883 29.8418 23.9043C29.8418 23.0957 28.8535 22.6016 28.0449 22.6016C27.0117 22.6016 26.5176 23.0957 25.8438 23.9492C25.6641 24.1738 25.3047 24.2188 25.0801 24.0391L23.8223 23.0957C23.5977 22.916 23.5527 22.6016 23.7324 22.377C24.7656 20.8047 26.1133 19.9062 28.2246 19.9062C30.4258 19.9062 32.8066 21.6582 32.8066 23.9043ZM29.8867 31.4062C29.8867 32.4844 29.0332 33.293 28 33.293C26.9219 33.293 26.1133 32.4844 26.1133 31.4062C26.1133 30.373 26.9219 29.5195 28 29.5195C29.0332 29.5195 29.8867 30.373 29.8867 31.4062Z" fill="white"/>
</g>
<defs>
<filter id="filter0_d_1_11625" x="0" y="0" width="56" height="56" filterUnits="userSpaceOnUse" color-interpolation-filters="sRGB">
<feFlood flood-opacity="0" result="BackgroundImageFix"/>
<feColorMatrix in="SourceAlpha" type="matrix" values="0 0 0 0 0 0 0 0 0 0 0 0 0 0 0 0 0 0 127 0" result="hardAlpha"/>
<feOffset dy="2"/>
<feGaussianBlur stdDeviation="2"/>
<feComposite in2="hardAlpha" operator="out"/>
<feColorMatrix type="matrix" values="0 0 0 0 0 0 0 0 0 0 0 0 0 0 0 0 0 0 0.25 0"/>
<feBlend mode="normal" in2="BackgroundImageFix" result="effect1_dropShadow_1_11625"/>
<feBlend mode="normal" in="SourceGraphic" in2="effect1_dropShadow_1_11625" result="shape"/>
</filter>
</defs>
</svg>
