<svg width="24" height="19" viewBox="0 0 24 19" fill="none" xmlns="http://www.w3.org/2000/svg">
<path d="M23.1445 7.42188C23.3203 7.70312 23.2148 8.05469 22.9688 8.19531L18.6445 10.7266C18.4336 11.3242 17.9414 11.8164 17.3438 11.9922V12.4844C17.3438 13.7148 16.5 14.7344 15.4102 15.0508C15.0938 16.2461 13.9688 17.125 12.668 17.125H8.625L6.79688 18.1797C6.51562 18.3555 6.19922 18.25 6.02344 17.9688L5.74219 17.5117C5.60156 17.2305 5.67188 16.8789 5.95312 16.7383L8.16797 15.4375H12.668C13.3008 15.4375 13.8281 14.9453 13.8281 14.3125V13.4688H14.6719C15.1992 13.4688 15.6562 13.0469 15.6562 12.4844V10.375H16.7812C16.9219 10.375 17.0625 10.2695 17.0625 10.0938V8.96875C17.0625 8.82812 16.9219 8.6875 16.7812 8.6875H13.125V9.25C13.125 10.9023 11.6836 12.2383 9.99609 12.0625C8.55469 11.9219 7.5 10.5508 7.5 9.10938V7.59766L6.33984 8.30078C5.98828 8.51172 5.8125 8.86328 5.8125 9.28516V11.4297L1.875 13.7148C1.59375 13.8906 1.24219 13.7852 1.10156 13.5039L0.820312 13.0117C0.644531 12.7656 0.75 12.4141 1.03125 12.2383L4.125 10.4805V9.28516C4.125 8.26562 4.61719 7.35156 5.46094 6.85938L7.57031 5.59375C7.71094 4.89062 8.16797 4.25781 8.80078 3.83594L9.99609 3.09766C10.5938 2.71094 11.332 2.5 12.0703 2.5H15.3398L19.1367 0.320312C19.418 0.179688 19.7695 0.285156 19.9102 0.53125L20.1914 1.02344C20.332 1.30469 20.2617 1.65625 19.9805 1.79688L15.7617 4.1875H12.0703C11.6484 4.1875 11.2266 4.32812 10.875 4.53906L9.71484 5.27734C9.36328 5.48828 9.1875 5.83984 9.1875 6.22656V9.25C9.1875 9.88281 9.67969 10.375 10.3125 10.375C10.9102 10.375 11.4375 9.88281 11.4375 9.25V7H16.7812C17.7656 7 18.5742 7.77344 18.7148 8.72266L22.125 6.75391C22.3711 6.57812 22.7227 6.68359 22.8633 6.92969L23.1445 7.42188Z" fill="black"/>
</svg>
