<svg width="21" height="17" viewBox="0 0 21 17" fill="none" xmlns="http://www.w3.org/2000/svg">
<path d="M20.4141 7.96875C20.5195 8.07422 20.625 8.25 20.625 8.39062C20.625 8.49609 20.5547 8.67188 20.4844 8.74219L20.1328 9.19922C20.0273 9.30469 19.8164 9.41016 19.6758 9.41016C19.5703 9.41016 19.3945 9.33984 19.3242 9.26953L18.375 8.46094V15.0352C18.3398 15.6328 17.8477 16.125 17.25 16.125H12.75C12.1172 16.125 11.625 15.6328 11.625 15V11.3438H9.375V15C9.33984 15.6328 8.84766 16.125 8.25 16.125H3.75C3.11719 16.125 2.625 15.6328 2.625 15V8.46094L1.64062 9.26953C1.57031 9.33984 1.39453 9.375 1.28906 9.375C1.14844 9.375 0.9375 9.30469 0.867188 9.19922L0.480469 8.74219C0.410156 8.67188 0.375 8.49609 0.375 8.39062C0.375 8.25 0.445312 8.07422 0.550781 7.96875L9.23438 0.832031C9.51562 0.585938 10.0781 0.410156 10.5 0.410156C10.8867 0.410156 11.4492 0.585938 11.7305 0.832031L16.6875 4.91016V2.90625C16.6875 2.76562 16.793 2.66016 16.9688 2.625H18.0938C18.2344 2.625 18.375 2.76562 18.375 2.90625V6.28125L20.4141 7.96875ZM16.6523 14.4375L16.6875 7.08984L10.5 1.99219L4.3125 7.08984V14.4375H7.6875V10.7812C7.6875 10.1836 8.17969 9.69141 8.8125 9.65625H12.1875C12.7852 9.69141 13.2773 10.1836 13.3125 10.7812V14.4375H16.6523Z" fill="black"/>
</svg>
