<svg width="24" height="23" viewBox="0 0 24 23" fill="none" xmlns="http://www.w3.org/2000/svg">
<path d="M12 0.234375C18.1094 0.234375 23.1406 5.26562 23.1406 11.375C23.1406 17.5293 18.1094 22.5156 12 22.5156C5.8457 22.5156 0.859375 17.5293 0.859375 11.375C0.859375 5.26562 5.8457 0.234375 12 0.234375ZM12 20.3594C16.9414 20.3594 20.9844 16.3613 20.9844 11.375C20.9844 6.43359 16.9414 2.39062 12 2.39062C7.01367 2.39062 3.01562 6.43359 3.01562 11.375C3.01562 16.3613 7.01367 20.3594 12 20.3594ZM16.8066 8.9043C16.8066 11.9141 13.5273 11.959 13.5273 13.082V13.3516C13.5273 13.666 13.3027 13.8906 12.9883 13.8906H10.9668C10.6523 13.8906 10.4277 13.666 10.4277 13.3516V12.9922C10.4277 11.375 11.6406 10.7461 12.5391 10.207C13.3477 9.75781 13.8418 9.48828 13.8418 8.9043C13.8418 8.0957 12.8535 7.60156 12.0449 7.60156C11.0117 7.60156 10.5176 8.0957 9.84375 8.94922C9.66406 9.17383 9.30469 9.21875 9.08008 9.03906L7.82227 8.0957C7.59766 7.91602 7.55273 7.60156 7.73242 7.37695C8.76562 5.80469 10.1133 4.90625 12.2246 4.90625C14.4258 4.90625 16.8066 6.6582 16.8066 8.9043ZM13.8867 16.4062C13.8867 17.4844 13.0332 18.293 12 18.293C10.9219 18.293 10.1133 17.4844 10.1133 16.4062C10.1133 15.373 10.9219 14.5195 12 14.5195C13.0332 14.5195 13.8867 15.373 13.8867 16.4062Z" fill="white"/>
</svg>
