<svg width="335" height="173" viewBox="0 0 335 173" fill="none" xmlns="http://www.w3.org/2000/svg">
<rect x="0.5" y="0.5" width="334" height="172" rx="5.5" stroke="#5B59FE" stroke-dasharray="10 10"/>
<g opacity="0.5">
<path d="M169.276 45.6087L169.368 45.6363L169.373 45.6307C169.727 45.6854 170.073 45.4714 170.177 45.1207C171.093 42.0435 173.978 39.8935 177.192 39.8935C177.592 39.8935 177.917 39.5691 177.917 39.169C177.917 38.769 177.592 38.4445 177.192 38.4445C173.21 38.4445 169.863 41.0964 168.788 44.7078C168.674 45.0914 168.893 45.4944 169.276 45.6087Z" fill="#5B59FE" stroke="#F9FFF9" stroke-width="0.3"/>
<path d="M185.234 67.3208H181.788C181.47 67.3208 181.213 67.0635 181.213 66.7462C181.213 66.429 181.47 66.1717 181.788 66.1717H185.234C189.985 66.1717 193.851 62.3055 193.851 57.5539C193.851 52.8022 189.985 48.936 185.234 48.936H185.151C184.985 48.936 184.826 48.8638 184.717 48.7378C184.608 48.6119 184.559 48.4448 184.583 48.2799C184.634 47.922 184.66 47.5625 184.66 47.2125C184.66 43.0944 181.309 39.7437 177.192 39.7437C175.59 39.7437 174.062 40.2443 172.774 41.1919C172.49 41.3999 172.088 41.3076 171.925 40.9961C168.276 34.0469 158.745 33.1137 153.803 39.1589C151.722 41.7056 150.904 45.0186 151.559 48.2475C151.631 48.6041 151.358 48.9365 150.996 48.9365H150.766C146.015 48.9365 142.149 52.8026 142.149 57.5543C142.149 62.306 146.015 66.1721 150.766 66.1721H154.213C154.53 66.1721 154.787 66.4294 154.787 66.7467C154.787 67.0639 154.53 67.3212 154.213 67.3212H150.766C145.381 67.3212 141 62.9396 141 57.5543C141 52.32 145.139 48.034 150.315 47.7976C149.829 44.4477 150.759 41.0687 152.914 38.4317C158.204 31.9589 168.343 32.6844 172.629 39.9021C173.996 39.0448 175.56 38.5951 177.192 38.5951C182.18 38.5951 186.134 42.8416 185.788 47.803C190.916 48.0907 195 52.354 195 57.5539C195 62.9396 190.619 67.3208 185.234 67.3208L185.234 67.3208Z" fill="#5B59FE"/>
<path d="M153.411 66.4216C153.411 74.4243 159.921 80.9348 167.923 80.9348C175.925 80.9348 182.435 74.4242 182.435 66.4216C182.435 58.4188 175.925 51.9083 167.923 51.9083C159.921 51.9083 153.411 58.4189 153.411 66.4216ZM154.86 66.4216C154.86 59.2184 160.721 53.3577 167.923 53.3577C175.126 53.3577 180.986 59.2183 180.986 66.4216C180.986 73.6248 175.126 79.4855 167.923 79.4855C160.721 79.4855 154.86 73.6249 154.86 66.4216Z" fill="#5B59FE" stroke="#F9FFF9" stroke-width="0.3"/>
<path d="M167.615 72.2039C167.615 72.5191 167.871 72.7745 168.186 72.7745C168.501 72.7745 168.757 72.5195 168.757 72.2039V61.2678C168.757 60.9526 168.501 60.6972 168.186 60.6972C167.871 60.6972 167.615 60.9526 167.615 61.2678V72.2039Z" fill="#5B59FE" stroke="#5B59FE" stroke-width="0.3"/>
<path d="M168.186 62.0763L171.147 65.0377C171.258 65.149 171.404 65.2048 171.55 65.2048L168.186 62.0763ZM168.186 62.0763L165.225 65.0376L168.186 62.0763ZM164.417 65.0377C164.64 65.2605 165.002 65.2607 165.224 65.0377L171.55 65.2048C171.695 65.2048 171.842 65.1495 171.954 65.0377C172.176 64.8148 172.176 64.4536 171.954 64.2307L168.589 60.8658C168.366 60.643 168.005 60.6428 167.782 60.8658C167.782 60.8658 167.782 60.8658 167.782 60.8659C167.782 60.8659 167.782 60.8659 167.782 60.8659L164.417 64.2307C164.195 64.4536 164.195 64.8148 164.417 65.0377Z" fill="#5B59FE" stroke="#5B59FE" stroke-width="0.3"/>
</g>
<path d="M77.6531 112.785V102.385H81.0531C82.8487 102.385 84.1465 102.842 84.9465 103.758C85.7553 104.665 86.1598 105.94 86.1598 107.585C86.1598 109.229 85.7553 110.509 84.9465 111.425C84.1465 112.331 82.8487 112.785 81.0531 112.785H77.6531ZM79.1598 111.531H80.9198C81.8176 111.531 82.5376 111.389 83.0798 111.105C83.6309 110.811 84.0265 110.371 84.2665 109.785C84.5153 109.198 84.6398 108.465 84.6398 107.585C84.6398 106.696 84.5153 105.962 84.2665 105.385C84.0265 104.798 83.6309 104.362 83.0798 104.078C82.5376 103.785 81.8176 103.638 80.9198 103.638H79.1598V111.531ZM87.8921 112.785V104.785H89.1721V106.145H89.4921C89.5454 105.922 89.6388 105.7 89.7721 105.478C89.9054 105.256 90.1188 105.074 90.4121 104.931C90.7054 104.78 91.1187 104.705 91.6521 104.705H91.9188V106.065H91.5188C90.7188 106.065 90.1543 106.274 89.8254 106.691C89.4965 107.1 89.3321 107.745 89.3321 108.625V112.785H87.8921ZM95.8735 112.985C95.1891 112.985 94.6069 112.811 94.1269 112.465C93.6469 112.118 93.278 111.634 93.0202 111.011C92.7713 110.38 92.6469 109.638 92.6469 108.785C92.6469 107.931 92.7713 107.194 93.0202 106.571C93.278 105.94 93.6469 105.451 94.1269 105.105C94.6158 104.758 95.2069 104.585 95.9002 104.585C96.5047 104.585 96.9847 104.714 97.3402 104.971C97.7047 105.22 97.958 105.505 98.1002 105.825H98.4202V104.785H99.7002V112.785H98.4202V111.745H98.1002C97.958 112.065 97.7047 112.354 97.3402 112.611C96.9758 112.86 96.4869 112.985 95.8735 112.985ZM96.1269 111.785C96.7935 111.785 97.3224 111.509 97.7135 110.958C98.1047 110.407 98.3002 109.682 98.3002 108.785C98.3002 107.887 98.1047 107.162 97.7135 106.611C97.3224 106.06 96.7935 105.785 96.1269 105.785C95.478 105.785 94.9802 106.047 94.6335 106.571C94.2869 107.096 94.1135 107.834 94.1135 108.785C94.1135 109.736 94.2869 110.474 94.6335 110.998C94.9802 111.522 95.478 111.785 96.1269 111.785ZM105.004 115.638C104.435 115.638 103.955 115.567 103.564 115.425C103.173 115.282 102.853 115.096 102.604 114.865C102.355 114.642 102.168 114.398 102.044 114.131C101.919 113.865 101.839 113.602 101.804 113.345H103.244C103.297 113.647 103.466 113.918 103.75 114.158C104.035 114.398 104.475 114.518 105.07 114.518C105.71 114.518 106.204 114.34 106.55 113.985C106.906 113.629 107.084 113.056 107.084 112.265V111.371H106.764C106.622 111.727 106.377 112.025 106.03 112.265C105.693 112.496 105.23 112.611 104.644 112.611C103.657 112.611 102.875 112.251 102.297 111.531C101.728 110.811 101.444 109.825 101.444 108.571C101.444 107.754 101.568 107.047 101.817 106.451C102.075 105.856 102.439 105.398 102.91 105.078C103.39 104.749 103.959 104.585 104.617 104.585C105.23 104.585 105.702 104.709 106.03 104.958C106.368 105.207 106.613 105.496 106.764 105.825H107.084V104.785H108.364V112.345C108.364 113.411 108.075 114.225 107.497 114.785C106.919 115.354 106.088 115.638 105.004 115.638ZM104.817 111.411C105.502 111.411 106.03 111.149 106.404 110.625C106.777 110.091 106.964 109.416 106.964 108.598C106.964 107.762 106.773 107.087 106.39 106.571C106.017 106.047 105.497 105.785 104.83 105.785C104.208 105.785 103.728 106.029 103.39 106.518C103.053 107.007 102.884 107.7 102.884 108.598C102.884 109.496 103.048 110.189 103.377 110.678C103.715 111.167 104.195 111.411 104.817 111.411ZM116.825 112.971C116.097 112.971 115.465 112.842 114.932 112.585C114.408 112.327 113.999 111.976 113.705 111.531C113.421 111.078 113.279 110.567 113.279 109.998C113.279 109.331 113.474 108.771 113.865 108.318C114.265 107.865 114.777 107.514 115.399 107.265V106.945C115.123 106.714 114.861 106.407 114.612 106.025C114.363 105.642 114.239 105.198 114.239 104.691C114.239 104.256 114.345 103.851 114.559 103.478C114.781 103.105 115.105 102.802 115.532 102.571C115.959 102.34 116.488 102.225 117.119 102.225C117.99 102.225 118.661 102.438 119.132 102.865C119.612 103.291 119.852 103.829 119.852 104.478C119.852 104.931 119.741 105.327 119.519 105.665C119.297 105.994 119.012 106.269 118.665 106.491C118.328 106.705 117.972 106.878 117.599 107.011V107.331L119.159 108.785C119.31 108.927 119.452 109.078 119.585 109.238C119.719 109.389 119.83 109.549 119.919 109.718H120.239C120.39 109.354 120.51 108.971 120.599 108.571C120.697 108.171 120.763 107.767 120.799 107.358H123.145V108.505H121.825C121.754 108.86 121.643 109.207 121.492 109.545C121.341 109.874 121.168 110.189 120.972 110.491L123.332 112.705V112.785H121.545L120.239 111.545H119.919C119.608 111.954 119.203 112.296 118.705 112.571C118.208 112.838 117.581 112.971 116.825 112.971ZM117.052 111.731C117.541 111.731 117.963 111.647 118.319 111.478C118.683 111.3 119.017 111.06 119.319 110.758L116.212 107.811C115.785 108.051 115.434 108.327 115.159 108.638C114.883 108.94 114.745 109.327 114.745 109.798C114.745 110.34 114.945 110.798 115.345 111.171C115.745 111.545 116.314 111.731 117.052 111.731ZM116.745 106.545C117.243 106.34 117.661 106.087 117.999 105.785C118.345 105.474 118.519 105.087 118.519 104.625C118.519 104.26 118.399 103.954 118.159 103.705C117.928 103.456 117.572 103.331 117.092 103.331C116.594 103.331 116.23 103.465 115.999 103.731C115.768 103.989 115.652 104.3 115.652 104.665C115.652 105.038 115.754 105.376 115.959 105.678C116.163 105.971 116.425 106.26 116.745 106.545ZM130.519 112.985C129.834 112.985 129.252 112.811 128.772 112.465C128.292 112.118 127.923 111.634 127.665 111.011C127.417 110.38 127.292 109.638 127.292 108.785C127.292 107.931 127.417 107.194 127.665 106.571C127.923 105.94 128.288 105.451 128.759 105.105C129.239 104.758 129.817 104.585 130.492 104.585C131.034 104.585 131.474 104.691 131.812 104.905C132.159 105.118 132.417 105.398 132.585 105.745H132.905V102.118H134.345V112.785H133.065V111.745H132.745C132.603 112.065 132.35 112.354 131.985 112.611C131.621 112.86 131.132 112.985 130.519 112.985ZM130.772 111.785C131.439 111.785 131.968 111.509 132.359 110.958C132.75 110.407 132.945 109.682 132.945 108.785C132.945 107.887 132.75 107.162 132.359 106.611C131.968 106.06 131.439 105.785 130.772 105.785C130.123 105.785 129.625 106.047 129.279 106.571C128.932 107.096 128.759 107.834 128.759 108.785C128.759 109.736 128.932 110.474 129.279 110.998C129.625 111.522 130.123 111.785 130.772 111.785ZM136.689 112.785V104.785H137.969V106.145H138.289C138.342 105.922 138.436 105.7 138.569 105.478C138.702 105.256 138.916 105.074 139.209 104.931C139.502 104.78 139.916 104.705 140.449 104.705H140.716V106.065H140.316C139.516 106.065 138.951 106.274 138.622 106.691C138.293 107.1 138.129 107.745 138.129 108.625V112.785H136.689ZM145.044 112.985C143.826 112.985 142.919 112.607 142.324 111.851C141.737 111.087 141.444 110.065 141.444 108.785C141.444 107.505 141.737 106.487 142.324 105.731C142.919 104.967 143.826 104.585 145.044 104.585C146.262 104.585 147.164 104.967 147.75 105.731C148.346 106.487 148.644 107.505 148.644 108.785C148.644 110.065 148.346 111.087 147.75 111.851C147.164 112.607 146.262 112.985 145.044 112.985ZM145.044 111.811C145.782 111.811 146.319 111.54 146.657 110.998C147.004 110.456 147.177 109.718 147.177 108.785C147.177 107.851 147.004 107.114 146.657 106.571C146.319 106.029 145.782 105.758 145.044 105.758C144.306 105.758 143.764 106.029 143.417 106.571C143.079 107.114 142.91 107.851 142.91 108.785C142.91 109.718 143.079 110.456 143.417 110.998C143.764 111.54 144.306 111.811 145.044 111.811ZM150.397 115.451V104.785H151.677V105.825H151.997C152.139 105.505 152.392 105.22 152.757 104.971C153.121 104.714 153.61 104.585 154.223 104.585C154.908 104.585 155.49 104.758 155.97 105.105C156.45 105.442 156.814 105.927 157.063 106.558C157.321 107.189 157.45 107.931 157.45 108.785C157.45 109.629 157.321 110.367 157.063 110.998C156.814 111.629 156.45 112.118 155.97 112.465C155.499 112.811 154.926 112.985 154.25 112.985C153.708 112.985 153.268 112.878 152.93 112.665C152.592 112.451 152.334 112.171 152.157 111.825H151.837V115.451H150.397ZM153.97 111.785C154.619 111.785 155.117 111.522 155.463 110.998C155.81 110.474 155.983 109.736 155.983 108.785C155.983 107.834 155.81 107.096 155.463 106.571C155.117 106.047 154.619 105.785 153.97 105.785C153.303 105.785 152.774 106.06 152.383 106.611C151.992 107.162 151.797 107.887 151.797 108.785C151.797 109.682 151.992 110.407 152.383 110.958C152.774 111.509 153.303 111.785 153.97 111.785ZM162.823 112.785V105.905H161.65V104.785H162.823V104.265C162.823 103.865 162.89 103.5 163.023 103.171C163.157 102.842 163.383 102.58 163.703 102.385C164.023 102.189 164.459 102.091 165.01 102.091C165.206 102.091 165.374 102.105 165.517 102.131V103.278C165.428 103.251 165.294 103.238 165.117 103.238C164.726 103.238 164.477 103.336 164.37 103.531C164.263 103.718 164.21 103.967 164.21 104.278V104.785H165.517V105.905H164.21V112.785H162.823ZM167.063 112.785V104.785H168.503V112.785H167.063ZM167.783 103.665C167.508 103.665 167.29 103.585 167.13 103.425C166.979 103.265 166.903 103.051 166.903 102.785C166.903 102.518 166.979 102.305 167.13 102.145C167.29 101.985 167.508 101.905 167.783 101.905C168.068 101.905 168.286 101.985 168.437 102.145C168.588 102.305 168.663 102.518 168.663 102.785C168.663 103.051 168.588 103.265 168.437 103.425C168.286 103.585 168.068 103.665 167.783 103.665ZM171.39 112.785C171.194 112.545 171.034 112.256 170.91 111.918C170.794 111.58 170.736 111.074 170.736 110.398V102.118H172.176V110.211C172.176 110.922 172.252 111.456 172.403 111.811C172.563 112.167 172.754 112.465 172.976 112.705V112.785H171.39ZM177.577 112.985C176.404 112.985 175.511 112.602 174.897 111.838C174.293 111.065 173.991 110.047 173.991 108.785C173.991 107.949 174.124 107.22 174.391 106.598C174.666 105.967 175.066 105.474 175.591 105.118C176.124 104.762 176.782 104.585 177.564 104.585C178.657 104.585 179.488 104.94 180.057 105.651C180.635 106.362 180.924 107.394 180.924 108.745V109.158H175.391C175.435 109.94 175.635 110.585 175.991 111.091C176.355 111.589 176.888 111.838 177.591 111.838C178.097 111.838 178.506 111.696 178.817 111.411C179.128 111.127 179.351 110.731 179.484 110.225H180.844C180.728 110.767 180.537 111.247 180.271 111.665C180.004 112.074 179.648 112.398 179.204 112.638C178.76 112.869 178.217 112.985 177.577 112.985ZM175.404 108.118H179.524C179.497 107.345 179.311 106.754 178.964 106.345C178.617 105.936 178.146 105.731 177.551 105.731C176.92 105.731 176.422 105.94 176.057 106.358C175.702 106.776 175.484 107.362 175.404 108.118ZM185.291 112.985C184.553 112.985 183.945 112.856 183.465 112.598C182.985 112.331 182.625 111.989 182.385 111.571C182.145 111.145 182.011 110.696 181.985 110.225H183.398C183.425 110.491 183.509 110.754 183.651 111.011C183.793 111.26 184.002 111.465 184.278 111.625C184.553 111.785 184.905 111.865 185.331 111.865C185.802 111.865 186.167 111.767 186.425 111.571C186.682 111.367 186.811 111.1 186.811 110.771C186.811 110.487 186.709 110.247 186.505 110.051C186.309 109.847 186.002 109.669 185.585 109.518L184.638 109.185C184.211 109.025 183.825 108.851 183.478 108.665C183.14 108.469 182.869 108.229 182.665 107.945C182.46 107.651 182.358 107.282 182.358 106.838C182.358 106.154 182.602 105.607 183.091 105.198C183.58 104.789 184.251 104.585 185.105 104.585C185.718 104.585 186.225 104.691 186.625 104.905C187.033 105.118 187.345 105.411 187.558 105.785C187.771 106.149 187.896 106.562 187.931 107.025H186.571C186.536 106.687 186.402 106.385 186.171 106.118C185.94 105.842 185.562 105.705 185.038 105.705C184.62 105.705 184.3 105.798 184.078 105.985C183.856 106.162 183.745 106.407 183.745 106.718C183.745 107.02 183.851 107.269 184.065 107.465C184.278 107.66 184.598 107.838 185.025 107.998L185.971 108.318C186.398 108.478 186.78 108.656 187.118 108.851C187.456 109.038 187.718 109.274 187.905 109.558C188.1 109.842 188.198 110.207 188.198 110.651C188.198 111.336 187.949 111.896 187.451 112.331C186.953 112.767 186.233 112.985 185.291 112.985ZM196.138 112.985C194.92 112.985 194.013 112.607 193.418 111.851C192.831 111.087 192.538 110.065 192.538 108.785C192.538 107.505 192.831 106.487 193.418 105.731C194.013 104.967 194.92 104.585 196.138 104.585C197.355 104.585 198.258 104.967 198.844 105.731C199.44 106.487 199.738 107.505 199.738 108.785C199.738 110.065 199.44 111.087 198.844 111.851C198.258 112.607 197.355 112.985 196.138 112.985ZM196.138 111.811C196.875 111.811 197.413 111.54 197.751 110.998C198.098 110.456 198.271 109.718 198.271 108.785C198.271 107.851 198.098 107.114 197.751 106.571C197.413 106.029 196.875 105.758 196.138 105.758C195.4 105.758 194.858 106.029 194.511 106.571C194.173 107.114 194.004 107.851 194.004 108.785C194.004 109.718 194.173 110.456 194.511 110.998C194.858 111.54 195.4 111.811 196.138 111.811ZM201.517 112.785V104.785H202.797V106.145H203.117C203.17 105.922 203.264 105.7 203.397 105.478C203.53 105.256 203.744 105.074 204.037 104.931C204.33 104.78 204.744 104.705 205.277 104.705H205.544V106.065H205.144C204.344 106.065 203.779 106.274 203.45 106.691C203.122 107.1 202.957 107.745 202.957 108.625V112.785H201.517Z" fill="black"/>
<path d="M210.341 112.785V102.385H213.914C215.132 102.385 216.025 102.616 216.594 103.078C217.172 103.531 217.461 104.14 217.461 104.905C217.461 105.385 217.332 105.811 217.074 106.185C216.825 106.558 216.438 106.807 215.914 106.931V107.251C216.581 107.367 217.083 107.642 217.421 108.078C217.767 108.505 217.941 109.06 217.941 109.745C217.941 110.651 217.63 111.385 217.007 111.945C216.385 112.505 215.425 112.785 214.127 112.785H210.341ZM211.807 111.585H214.114C214.932 111.585 215.523 111.42 215.887 111.091C216.261 110.754 216.447 110.278 216.447 109.665C216.447 109.069 216.265 108.607 215.901 108.278C215.536 107.949 214.95 107.785 214.141 107.785H211.807V111.585ZM211.807 106.625H213.941C214.634 106.625 215.15 106.5 215.487 106.251C215.825 106.002 215.994 105.62 215.994 105.105C215.994 104.091 215.31 103.585 213.941 103.585H211.807V106.625ZM219.642 112.785V104.785H220.922V106.145H221.242C221.295 105.922 221.389 105.7 221.522 105.478C221.655 105.256 221.869 105.074 222.162 104.931C222.455 104.78 222.869 104.705 223.402 104.705H223.669V106.065H223.269C222.469 106.065 221.904 106.274 221.575 106.691C221.247 107.1 221.082 107.745 221.082 108.625V112.785H219.642ZM227.997 112.985C226.779 112.985 225.872 112.607 225.277 111.851C224.69 111.087 224.397 110.065 224.397 108.785C224.397 107.505 224.69 106.487 225.277 105.731C225.872 104.967 226.779 104.585 227.997 104.585C229.215 104.585 230.117 104.967 230.704 105.731C231.299 106.487 231.597 107.505 231.597 108.785C231.597 110.065 231.299 111.087 230.704 111.851C230.117 112.607 229.215 112.985 227.997 112.985ZM227.997 111.811C228.735 111.811 229.272 111.54 229.61 110.998C229.957 110.456 230.13 109.718 230.13 108.785C230.13 107.851 229.957 107.114 229.61 106.571C229.272 106.029 228.735 105.758 227.997 105.758C227.259 105.758 226.717 106.029 226.37 106.571C226.032 107.114 225.864 107.851 225.864 108.785C225.864 109.718 226.032 110.456 226.37 110.998C226.717 111.54 227.259 111.811 227.997 111.811ZM234.243 112.785L232.763 104.865V104.785H234.123L235.39 111.585H235.656L237.083 104.785H239.403L240.843 111.585H241.11L242.363 104.785H243.643V104.865L242.163 112.785H239.83L238.39 105.931H238.016L236.576 112.785H234.243ZM247.963 112.985C247.225 112.985 246.616 112.856 246.136 112.598C245.656 112.331 245.296 111.989 245.056 111.571C244.816 111.145 244.683 110.696 244.656 110.225H246.07C246.096 110.491 246.181 110.754 246.323 111.011C246.465 111.26 246.674 111.465 246.95 111.625C247.225 111.785 247.576 111.865 248.003 111.865C248.474 111.865 248.839 111.767 249.096 111.571C249.354 111.367 249.483 111.1 249.483 110.771C249.483 110.487 249.381 110.247 249.176 110.051C248.981 109.847 248.674 109.669 248.256 109.518L247.31 109.185C246.883 109.025 246.496 108.851 246.15 108.665C245.812 108.469 245.541 108.229 245.336 107.945C245.132 107.651 245.03 107.282 245.03 106.838C245.03 106.154 245.274 105.607 245.763 105.198C246.252 104.789 246.923 104.585 247.776 104.585C248.39 104.585 248.896 104.691 249.296 104.905C249.705 105.118 250.016 105.411 250.23 105.785C250.443 106.149 250.568 106.562 250.603 107.025H249.243C249.208 106.687 249.074 106.385 248.843 106.118C248.612 105.842 248.234 105.705 247.71 105.705C247.292 105.705 246.972 105.798 246.75 105.985C246.528 106.162 246.416 106.407 246.416 106.718C246.416 107.02 246.523 107.269 246.736 107.465C246.95 107.66 247.27 107.838 247.696 107.998L248.643 108.318C249.07 108.478 249.452 108.656 249.79 108.851C250.128 109.038 250.39 109.274 250.576 109.558C250.772 109.842 250.87 110.207 250.87 110.651C250.87 111.336 250.621 111.896 250.123 112.331C249.625 112.767 248.905 112.985 247.963 112.985ZM255.593 112.985C254.42 112.985 253.526 112.602 252.913 111.838C252.308 111.065 252.006 110.047 252.006 108.785C252.006 107.949 252.14 107.22 252.406 106.598C252.682 105.967 253.082 105.474 253.606 105.118C254.14 104.762 254.797 104.585 255.58 104.585C256.673 104.585 257.504 104.94 258.073 105.651C258.651 106.362 258.94 107.394 258.94 108.745V109.158H253.406C253.451 109.94 253.651 110.585 254.006 111.091C254.371 111.589 254.904 111.838 255.606 111.838C256.113 111.838 256.522 111.696 256.833 111.411C257.144 111.127 257.366 110.731 257.5 110.225H258.86C258.744 110.767 258.553 111.247 258.286 111.665C258.02 112.074 257.664 112.398 257.22 112.638C256.775 112.869 256.233 112.985 255.593 112.985ZM253.42 108.118H257.54C257.513 107.345 257.326 106.754 256.98 106.345C256.633 105.936 256.162 105.731 255.566 105.731C254.935 105.731 254.437 105.94 254.073 106.358C253.717 106.776 253.5 107.362 253.42 108.118Z" fill="#5B59FE"/>
<path d="M88.2032 131.922C87.7387 131.922 87.3293 131.858 86.9748 131.73C86.6265 131.601 86.3301 131.424 86.0857 131.198C85.8473 130.966 85.6609 130.697 85.5265 130.391C85.3982 130.086 85.3218 129.756 85.2973 129.401H86.2873C86.3057 129.682 86.3882 129.954 86.5348 130.217C86.6815 130.474 86.8954 130.685 87.1765 130.85C87.4637 131.015 87.8212 131.097 88.249 131.097C88.7134 131.097 89.0771 130.996 89.3398 130.795C89.6026 130.587 89.734 130.306 89.734 129.951C89.734 129.597 89.6057 129.325 89.349 129.136C89.0984 128.946 88.7807 128.787 88.3957 128.659L87.7082 128.43C87.3598 128.314 87.0268 128.179 86.709 128.026C86.3912 127.867 86.1315 127.66 85.9298 127.403C85.7282 127.146 85.6273 126.81 85.6273 126.395C85.6273 125.991 85.7251 125.649 85.9207 125.368C86.1162 125.087 86.3882 124.873 86.7365 124.726C87.0848 124.574 87.4882 124.497 87.9465 124.497C88.5026 124.497 88.9609 124.598 89.3215 124.8C89.6821 124.995 89.954 125.255 90.1373 125.579C90.3207 125.903 90.4246 126.26 90.449 126.651H89.459C89.4407 126.425 89.3765 126.211 89.2665 126.01C89.1626 125.808 89.0007 125.643 88.7807 125.515C88.5607 125.386 88.2704 125.322 87.9098 125.322C87.5187 125.322 87.204 125.411 86.9657 125.588C86.7334 125.759 86.6173 125.997 86.6173 126.303C86.6173 126.645 86.7518 126.908 87.0207 127.091C87.2957 127.275 87.6226 127.427 88.0015 127.55L88.6982 127.779C89.0465 127.889 89.3734 128.023 89.679 128.182C89.9907 128.341 90.2412 128.552 90.4307 128.815C90.6262 129.071 90.724 129.417 90.724 129.851C90.724 130.511 90.4948 131.021 90.0365 131.381C89.5782 131.742 88.9671 131.922 88.2032 131.922ZM93.7095 131.922C93.0678 131.922 92.6003 131.724 92.307 131.326C92.0197 130.929 91.8761 130.425 91.8761 129.814V126.285H92.8661V129.603C92.8661 130.08 92.9517 130.446 93.1228 130.703C93.2939 130.954 93.5597 131.079 93.9203 131.079C94.3725 131.079 94.7209 130.905 94.9653 130.556C95.2159 130.202 95.3411 129.765 95.3411 129.246V126.285H96.3311V131.785H95.4511V130.96H95.2311C95.1334 131.265 94.9531 131.504 94.6903 131.675C94.4336 131.84 94.1067 131.922 93.7095 131.922ZM97.9114 133.618V126.285H98.7914V127H99.0114C99.1092 126.78 99.2833 126.584 99.5339 126.413C99.7844 126.236 100.121 126.147 100.542 126.147C101.013 126.147 101.413 126.266 101.743 126.505C102.073 126.737 102.324 127.07 102.495 127.504C102.672 127.938 102.761 128.448 102.761 129.035C102.761 129.615 102.672 130.122 102.495 130.556C102.324 130.99 102.073 131.326 101.743 131.565C101.419 131.803 101.025 131.922 100.561 131.922C100.188 131.922 99.8853 131.849 99.653 131.702C99.4208 131.556 99.2436 131.363 99.1214 131.125H98.9014V133.618H97.9114ZM100.368 131.097C100.814 131.097 101.156 130.917 101.395 130.556C101.633 130.196 101.752 129.689 101.752 129.035C101.752 128.381 101.633 127.874 101.395 127.513C101.156 127.152 100.814 126.972 100.368 126.972C99.9097 126.972 99.5461 127.162 99.2772 127.541C99.0083 127.919 98.8739 128.417 98.8739 129.035C98.8739 129.652 99.0083 130.15 99.2772 130.529C99.5461 130.908 99.9097 131.097 100.368 131.097ZM103.959 133.618V126.285H104.839V127H105.059C105.157 126.78 105.331 126.584 105.582 126.413C105.832 126.236 106.168 126.147 106.59 126.147C107.061 126.147 107.461 126.266 107.791 126.505C108.121 126.737 108.371 127.07 108.543 127.504C108.72 127.938 108.808 128.448 108.808 129.035C108.808 129.615 108.72 130.122 108.543 130.556C108.371 130.99 108.121 131.326 107.791 131.565C107.467 131.803 107.073 131.922 106.608 131.922C106.236 131.922 105.933 131.849 105.701 131.702C105.469 131.556 105.291 131.363 105.169 131.125H104.949V133.618H103.959ZM106.416 131.097C106.862 131.097 107.204 130.917 107.443 130.556C107.681 130.196 107.8 129.689 107.8 129.035C107.8 128.381 107.681 127.874 107.443 127.513C107.204 127.152 106.862 126.972 106.416 126.972C105.958 126.972 105.594 127.162 105.325 127.541C105.056 127.919 104.922 128.417 104.922 129.035C104.922 129.652 105.056 130.15 105.325 130.529C105.594 130.908 105.958 131.097 106.416 131.097ZM112.106 131.922C111.269 131.922 110.646 131.662 110.236 131.143C109.833 130.617 109.631 129.915 109.631 129.035C109.631 128.155 109.833 127.455 110.236 126.936C110.646 126.41 111.269 126.147 112.106 126.147C112.943 126.147 113.564 126.41 113.967 126.936C114.377 127.455 114.581 128.155 114.581 129.035C114.581 129.915 114.377 130.617 113.967 131.143C113.564 131.662 112.943 131.922 112.106 131.922ZM112.106 131.116C112.613 131.116 112.983 130.929 113.215 130.556C113.454 130.184 113.573 129.676 113.573 129.035C113.573 128.393 113.454 127.886 113.215 127.513C112.983 127.14 112.613 126.954 112.106 126.954C111.599 126.954 111.226 127.14 110.988 127.513C110.756 127.886 110.64 128.393 110.64 129.035C110.64 129.676 110.756 130.184 110.988 130.556C111.226 130.929 111.599 131.116 112.106 131.116ZM115.805 131.785V126.285H116.685V127.22H116.905C116.941 127.067 117.006 126.914 117.097 126.761C117.189 126.609 117.336 126.483 117.537 126.386C117.739 126.282 118.023 126.23 118.39 126.23H118.573V127.165H118.298C117.748 127.165 117.36 127.308 117.134 127.596C116.908 127.877 116.795 128.32 116.795 128.925V131.785H115.805ZM120.32 131.785C120.185 131.62 120.075 131.421 119.99 131.189C119.91 130.957 119.87 130.608 119.87 130.144V127.055H119.119V126.285H119.889V124.91H120.842V126.285H121.777V127.055H120.86V129.988C120.86 130.489 120.912 130.865 121.016 131.116C121.126 131.36 121.258 131.565 121.41 131.73V131.785H120.32ZM124.934 131.922C124.127 131.922 123.513 131.659 123.091 131.134C122.676 130.602 122.468 129.902 122.468 129.035C122.468 128.46 122.56 127.959 122.743 127.531C122.933 127.097 123.208 126.758 123.568 126.514C123.935 126.269 124.387 126.147 124.925 126.147C125.676 126.147 126.248 126.392 126.639 126.881C127.036 127.369 127.235 128.078 127.235 129.007V129.291H123.431C123.461 129.829 123.599 130.272 123.843 130.621C124.094 130.963 124.46 131.134 124.943 131.134C125.291 131.134 125.573 131.036 125.786 130.841C126 130.645 126.153 130.373 126.245 130.025H127.18C127.1 130.397 126.969 130.727 126.786 131.015C126.602 131.296 126.358 131.519 126.052 131.684C125.747 131.843 125.374 131.922 124.934 131.922ZM123.44 128.576H126.272C126.254 128.045 126.126 127.638 125.887 127.357C125.649 127.076 125.325 126.936 124.916 126.936C124.482 126.936 124.14 127.079 123.889 127.366C123.645 127.654 123.495 128.057 123.44 128.576ZM130.265 131.922C129.794 131.922 129.394 131.803 129.064 131.565C128.734 131.326 128.48 130.993 128.303 130.566C128.132 130.132 128.047 129.621 128.047 129.035C128.047 128.448 128.132 127.941 128.303 127.513C128.48 127.079 128.731 126.743 129.055 126.505C129.385 126.266 129.782 126.147 130.247 126.147C130.619 126.147 130.922 126.221 131.154 126.367C131.392 126.514 131.57 126.706 131.686 126.945H131.906V124.451H132.896V131.785H132.016V131.07H131.796C131.698 131.29 131.524 131.488 131.273 131.666C131.023 131.837 130.687 131.922 130.265 131.922ZM130.439 131.097C130.897 131.097 131.261 130.908 131.53 130.529C131.799 130.15 131.933 129.652 131.933 129.035C131.933 128.417 131.799 127.919 131.53 127.541C131.261 127.162 130.897 126.972 130.439 126.972C129.993 126.972 129.651 127.152 129.412 127.513C129.174 127.874 129.055 128.381 129.055 129.035C129.055 129.689 129.174 130.196 129.412 130.556C129.651 130.917 129.993 131.097 130.439 131.097ZM136.984 131.785V127.055H136.177V126.285H136.984V125.927C136.984 125.652 137.03 125.402 137.122 125.176C137.213 124.949 137.369 124.769 137.589 124.635C137.809 124.5 138.108 124.433 138.487 124.433C138.622 124.433 138.738 124.442 138.836 124.461V125.249C138.775 125.231 138.683 125.221 138.561 125.221C138.292 125.221 138.121 125.289 138.047 125.423C137.974 125.551 137.937 125.722 137.937 125.936V126.285H138.836V127.055H137.937V131.785H136.984ZM142.002 131.922C141.165 131.922 140.541 131.662 140.132 131.143C139.728 130.617 139.527 129.915 139.527 129.035C139.527 128.155 139.728 127.455 140.132 126.936C140.541 126.41 141.165 126.147 142.002 126.147C142.839 126.147 143.459 126.41 143.863 126.936C144.272 127.455 144.477 128.155 144.477 129.035C144.477 129.915 144.272 130.617 143.863 131.143C143.459 131.662 142.839 131.922 142.002 131.922ZM142.002 131.116C142.509 131.116 142.879 130.929 143.111 130.556C143.349 130.184 143.468 129.676 143.468 129.035C143.468 128.393 143.349 127.886 143.111 127.513C142.879 127.14 142.509 126.954 142.002 126.954C141.495 126.954 141.122 127.14 140.883 127.513C140.651 127.886 140.535 128.393 140.535 129.035C140.535 129.676 140.651 130.184 140.883 130.556C141.122 130.929 141.495 131.116 142.002 131.116ZM145.7 131.785V126.285H146.58V127.22H146.8C146.837 127.067 146.901 126.914 146.993 126.761C147.084 126.609 147.231 126.483 147.433 126.386C147.634 126.282 147.919 126.23 148.285 126.23H148.469V127.165H148.194C147.644 127.165 147.255 127.308 147.029 127.596C146.803 127.877 146.69 128.32 146.69 128.925V131.785H145.7ZM149.528 131.785V126.285H150.408V127.119H150.628C150.713 126.807 150.875 126.569 151.113 126.404C151.358 126.233 151.666 126.147 152.039 126.147C152.436 126.147 152.76 126.236 153.011 126.413C153.261 126.584 153.445 126.819 153.561 127.119H153.781C153.885 126.807 154.062 126.569 154.313 126.404C154.569 126.233 154.893 126.147 155.284 126.147C155.889 126.147 156.326 126.346 156.595 126.743C156.87 127.134 157.008 127.638 157.008 128.256V131.785H156.018V128.466C156.018 127.99 155.941 127.626 155.788 127.376C155.636 127.119 155.391 126.991 155.055 126.991C154.646 126.991 154.328 127.168 154.102 127.522C153.876 127.871 153.763 128.304 153.763 128.824V131.785H152.773V128.466C152.773 127.99 152.696 127.626 152.543 127.376C152.391 127.119 152.146 126.991 151.81 126.991C151.401 126.991 151.083 127.168 150.857 127.522C150.631 127.871 150.518 128.304 150.518 128.824V131.785H149.528ZM160.351 131.922C159.88 131.922 159.48 131.803 159.15 131.565C158.82 131.326 158.566 130.993 158.389 130.566C158.218 130.132 158.132 129.621 158.132 129.035C158.132 128.448 158.218 127.941 158.389 127.513C158.566 127.079 158.82 126.743 159.15 126.505C159.486 126.266 159.892 126.147 160.369 126.147C160.784 126.147 161.114 126.236 161.359 126.413C161.609 126.584 161.784 126.78 161.881 127H162.101V126.285H162.981V131.785H162.101V131.07H161.881C161.784 131.29 161.609 131.488 161.359 131.666C161.108 131.837 160.772 131.922 160.351 131.922ZM160.525 131.097C160.983 131.097 161.347 130.908 161.616 130.529C161.884 130.15 162.019 129.652 162.019 129.035C162.019 128.417 161.884 127.919 161.616 127.541C161.347 127.162 160.983 126.972 160.525 126.972C160.079 126.972 159.736 127.152 159.498 127.513C159.26 127.874 159.141 128.381 159.141 129.035C159.141 129.689 159.26 130.196 159.498 130.556C159.736 130.917 160.079 131.097 160.525 131.097ZM165.243 131.785C165.109 131.62 164.999 131.421 164.913 131.189C164.834 130.957 164.794 130.608 164.794 130.144V127.055H164.043V126.285H164.813V124.91H165.766V126.285H166.701V127.055H165.784V129.988C165.784 130.489 165.836 130.865 165.94 131.116C166.05 131.36 166.181 131.565 166.334 131.73V131.785H165.243ZM169.858 131.922C169.051 131.922 168.437 131.659 168.015 131.134C167.6 130.602 167.392 129.902 167.392 129.035C167.392 128.46 167.484 127.959 167.667 127.531C167.856 127.097 168.131 126.758 168.492 126.514C168.859 126.269 169.311 126.147 169.849 126.147C170.6 126.147 171.172 126.392 171.563 126.881C171.96 127.369 172.159 128.078 172.159 129.007V129.291H168.354C168.385 129.829 168.523 130.272 168.767 130.621C169.018 130.963 169.384 131.134 169.867 131.134C170.215 131.134 170.496 131.036 170.71 130.841C170.924 130.645 171.077 130.373 171.169 130.025H172.104C172.024 130.397 171.893 130.727 171.709 131.015C171.526 131.296 171.282 131.519 170.976 131.684C170.671 131.843 170.298 131.922 169.858 131.922ZM168.364 128.576H171.196C171.178 128.045 171.049 127.638 170.811 127.357C170.573 127.076 170.249 126.936 169.839 126.936C169.406 126.936 169.063 127.079 168.813 127.366C168.568 127.654 168.419 128.057 168.364 128.576ZM175.161 131.922C174.654 131.922 174.235 131.834 173.905 131.656C173.575 131.473 173.328 131.238 173.163 130.951C172.998 130.657 172.906 130.349 172.888 130.025H173.86C173.878 130.208 173.936 130.388 174.034 130.566C174.131 130.737 174.275 130.877 174.465 130.987C174.654 131.097 174.895 131.152 175.189 131.152C175.513 131.152 175.763 131.085 175.94 130.951C176.118 130.81 176.206 130.627 176.206 130.401C176.206 130.205 176.136 130.04 175.995 129.906C175.861 129.765 175.65 129.643 175.363 129.539L174.712 129.31C174.419 129.2 174.153 129.081 173.915 128.952C173.682 128.818 173.496 128.653 173.355 128.457C173.215 128.256 173.145 128.002 173.145 127.696C173.145 127.226 173.313 126.85 173.649 126.569C173.985 126.288 174.446 126.147 175.033 126.147C175.455 126.147 175.803 126.221 176.078 126.367C176.359 126.514 176.573 126.716 176.72 126.972C176.866 127.223 176.952 127.507 176.976 127.825H176.041C176.017 127.592 175.925 127.385 175.766 127.201C175.607 127.012 175.348 126.917 174.987 126.917C174.7 126.917 174.48 126.981 174.327 127.11C174.174 127.232 174.098 127.4 174.098 127.614C174.098 127.822 174.171 127.993 174.318 128.127C174.465 128.262 174.685 128.384 174.978 128.494L175.629 128.714C175.922 128.824 176.185 128.946 176.417 129.081C176.649 129.209 176.83 129.371 176.958 129.566C177.092 129.762 177.16 130.012 177.16 130.318C177.16 130.789 176.988 131.174 176.646 131.473C176.304 131.772 175.809 131.922 175.161 131.922ZM179.041 128.265C178.833 128.265 178.671 128.21 178.555 128.1C178.439 127.984 178.381 127.825 178.381 127.623C178.381 127.421 178.439 127.266 178.555 127.156C178.671 127.039 178.833 126.981 179.041 126.981C179.255 126.981 179.417 127.039 179.527 127.156C179.643 127.266 179.701 127.421 179.701 127.623C179.701 127.825 179.643 127.984 179.527 128.1C179.417 128.21 179.255 128.265 179.041 128.265ZM179.041 131.015C178.833 131.015 178.671 130.96 178.555 130.85C178.439 130.734 178.381 130.575 178.381 130.373C178.381 130.171 178.439 130.016 178.555 129.906C178.671 129.789 178.833 129.731 179.041 129.731C179.255 129.731 179.417 129.789 179.527 129.906C179.643 130.016 179.701 130.171 179.701 130.373C179.701 130.575 179.643 130.734 179.527 130.85C179.417 130.96 179.255 131.015 179.041 131.015ZM182.833 133.16V133.105C182.98 132.903 183.114 132.689 183.236 132.463C183.365 132.237 183.466 131.965 183.539 131.647C183.618 131.329 183.658 130.935 183.658 130.465V124.635H184.685V130.465C184.685 130.972 184.651 131.391 184.584 131.721C184.517 132.051 184.428 132.326 184.318 132.546C184.214 132.772 184.101 132.976 183.979 133.16H182.833ZM186.335 131.785V124.635H188.883C189.794 124.635 190.457 124.824 190.872 125.203C191.294 125.576 191.505 126.077 191.505 126.706C191.505 127.336 191.294 127.84 190.872 128.219C190.457 128.592 189.794 128.778 188.883 128.778H187.361V131.785H186.335ZM187.361 127.953H188.837C189.412 127.953 189.824 127.852 190.075 127.651C190.331 127.449 190.46 127.134 190.46 126.706C190.46 126.279 190.331 125.964 190.075 125.762C189.824 125.561 189.412 125.46 188.837 125.46H187.361V127.953ZM192.662 131.785V124.635H197.245V125.496H193.689V127.522H196.494V128.347H193.689V130.923H197.3V131.785H192.662ZM201.09 131.922C200.412 131.922 199.844 131.763 199.385 131.446C198.927 131.122 198.582 130.679 198.35 130.116C198.117 129.548 198.001 128.903 198.001 128.182C198.001 127.455 198.117 126.816 198.35 126.266C198.582 125.71 198.936 125.276 199.413 124.965C199.89 124.653 200.488 124.497 201.21 124.497C201.784 124.497 202.276 124.598 202.685 124.8C203.095 125.001 203.419 125.292 203.657 125.671C203.895 126.043 204.045 126.492 204.106 127.018H203.098C203.025 126.48 202.823 126.065 202.493 125.771C202.169 125.472 201.726 125.322 201.164 125.322C200.443 125.322 199.908 125.579 199.56 126.092C199.217 126.606 199.046 127.299 199.046 128.173C199.046 129.108 199.23 129.832 199.596 130.346C199.969 130.859 200.507 131.116 201.21 131.116C201.808 131.116 202.276 130.938 202.612 130.584C202.948 130.229 203.131 129.737 203.162 129.108H200.825V128.283H204.125V131.785H203.3V130.905H203.08C202.945 131.18 202.722 131.418 202.41 131.62C202.105 131.821 201.665 131.922 201.09 131.922ZM205.131 133.16V133.105C205.266 132.879 205.388 132.659 205.498 132.445C205.608 132.237 205.706 132.032 205.791 131.831C205.657 131.794 205.541 131.727 205.443 131.629C205.345 131.525 205.296 131.384 205.296 131.207C205.296 131.024 205.351 130.877 205.461 130.767C205.578 130.651 205.743 130.593 205.956 130.593C206.17 130.593 206.332 130.657 206.442 130.786C206.558 130.914 206.616 131.085 206.616 131.299C206.616 131.531 206.555 131.797 206.433 132.096C206.311 132.402 206.134 132.756 205.901 133.16H205.131ZM210.086 131.785V124.635H212.634C213.545 124.635 214.208 124.824 214.623 125.203C215.045 125.576 215.256 126.077 215.256 126.706C215.256 127.336 215.045 127.84 214.623 128.219C214.208 128.592 213.545 128.778 212.634 128.778H211.112V131.785H210.086ZM211.112 127.953H212.588C213.163 127.953 213.575 127.852 213.826 127.651C214.082 127.449 214.211 127.134 214.211 126.706C214.211 126.279 214.082 125.964 213.826 125.762C213.575 125.561 213.163 125.46 212.588 125.46H211.112V127.953ZM216.413 131.785V124.635H218.283L221.125 130.969H221.345V124.635H222.28V131.785H220.41L217.568 125.451H217.348V131.785H216.413ZM226.582 131.922C225.903 131.922 225.335 131.763 224.877 131.446C224.418 131.122 224.073 130.679 223.841 130.116C223.609 129.548 223.492 128.903 223.492 128.182C223.492 127.455 223.609 126.816 223.841 126.266C224.073 125.71 224.427 125.276 224.904 124.965C225.381 124.653 225.98 124.497 226.701 124.497C227.275 124.497 227.767 124.598 228.177 124.8C228.586 125.001 228.91 125.292 229.148 125.671C229.387 126.043 229.536 126.492 229.597 127.018H228.589C228.516 126.48 228.314 126.065 227.984 125.771C227.66 125.472 227.217 125.322 226.655 125.322C225.934 125.322 225.399 125.579 225.051 126.092C224.709 126.606 224.537 127.299 224.537 128.173C224.537 129.108 224.721 129.832 225.087 130.346C225.46 130.859 225.998 131.116 226.701 131.116C227.3 131.116 227.767 130.938 228.103 130.584C228.439 130.229 228.623 129.737 228.653 129.108H226.316V128.283H229.616V131.785H228.791V130.905H228.571C228.436 131.18 228.213 131.418 227.902 131.62C227.596 131.821 227.156 131.922 226.582 131.922ZM230.623 133.16V133.105C230.757 132.879 230.879 132.659 230.989 132.445C231.099 132.237 231.197 132.032 231.283 131.831C231.148 131.794 231.032 131.727 230.934 131.629C230.837 131.525 230.788 131.384 230.788 131.207C230.788 131.024 230.843 130.877 230.953 130.767C231.069 130.651 231.234 130.593 231.448 130.593C231.662 130.593 231.823 130.657 231.933 130.786C232.05 130.914 232.108 131.085 232.108 131.299C232.108 131.531 232.047 131.797 231.924 132.096C231.802 132.402 231.625 132.756 231.393 133.16H230.623ZM234.825 133.16V133.105C234.972 132.903 235.106 132.689 235.229 132.463C235.357 132.237 235.458 131.965 235.531 131.647C235.611 131.329 235.65 130.935 235.65 130.465V124.635H236.677V130.465C236.677 130.972 236.643 131.391 236.576 131.721C236.509 132.051 236.42 132.326 236.31 132.546C236.206 132.772 236.093 132.976 235.971 133.16H234.825ZM238.327 131.785V124.635H240.875C241.786 124.635 242.449 124.824 242.864 125.203C243.286 125.576 243.497 126.077 243.497 126.706C243.497 127.336 243.286 127.84 242.864 128.219C242.449 128.592 241.786 128.778 240.875 128.778H239.354V131.785H238.327ZM239.354 127.953H240.829C241.404 127.953 241.816 127.852 242.067 127.651C242.324 127.449 242.452 127.134 242.452 126.706C242.452 126.279 242.324 125.964 242.067 125.762C241.816 125.561 241.404 125.46 240.829 125.46H239.354V127.953ZM247.303 131.922C246.625 131.922 246.057 131.763 245.598 131.446C245.14 131.122 244.795 130.679 244.562 130.116C244.33 129.548 244.214 128.903 244.214 128.182C244.214 127.455 244.33 126.816 244.562 126.266C244.795 125.71 245.149 125.276 245.626 124.965C246.102 124.653 246.701 124.497 247.422 124.497C247.997 124.497 248.489 124.598 248.898 124.8C249.308 125.001 249.632 125.292 249.87 125.671C250.108 126.043 250.258 126.492 250.319 127.018H249.311C249.237 126.48 249.036 126.065 248.706 125.771C248.382 125.472 247.939 125.322 247.377 125.322C246.655 125.322 246.121 125.579 245.772 126.092C245.43 126.606 245.259 127.299 245.259 128.173C245.259 129.108 245.442 129.832 245.809 130.346C246.182 130.859 246.72 131.116 247.422 131.116C248.021 131.116 248.489 130.938 248.825 130.584C249.161 130.229 249.344 129.737 249.375 129.108H247.037V128.283H250.337V131.785H249.512V130.905H249.292C249.158 131.18 248.935 131.418 248.623 131.62C248.318 131.821 247.878 131.922 247.303 131.922Z" fill="black"/>
</svg>
